<?xml version="1.0" standalone="no"?><!DOCTYPE svg PUBLIC "-//W3C//DTD SVG 1.1//EN" "http://www.w3.org/Graphics/SVG/1.1/DTD/svg11.dtd"><svg t="1603694392057" class="icon" viewBox="0 0 1024 1024" version="1.1" xmlns="http://www.w3.org/2000/svg" p-id="4469" xmlns:xlink="http://www.w3.org/1999/xlink" width="200" height="200"><defs><style type="text/css"></style></defs><path d="M421.236364 484.072727h-144.290909c-34.909091 0-65.163636-27.927273-65.163637-65.163636v-144.290909c0-34.909091 27.927273-65.163636 65.163637-65.163637h144.290909c34.909091 0 65.163636 27.927273 65.163636 65.163637V418.909091c-2.327273 37.236364-30.254545 65.163636-65.163636 65.163636z m-144.290909-235.054545c-16.290909 0-30.254545 13.963636-30.254546 30.254545v144.290909c0 16.290909 13.963636 30.254545 30.254546 30.254546h144.290909c16.290909 0 30.254545-13.963636 30.254545-30.254546V279.272727c0-16.290909-13.963636-30.254545-30.254545-30.254545h-144.290909zM747.054545 484.072727h-144.290909c-34.909091 0-65.163636-27.927273-65.163636-65.163636v-144.290909c0-34.909091 27.927273-65.163636 65.163636-65.163637h144.290909c34.909091 0 65.163636 27.927273 65.163637 65.163637V418.909091c-2.327273 37.236364-30.254545 65.163636-65.163637 65.163636z m-144.290909-235.054545c-16.290909 0-30.254545 13.963636-30.254545 30.254545v144.290909c0 16.290909 13.963636 30.254545 30.254545 30.254546h144.290909c16.290909 0 30.254545-13.963636 30.254546-30.254546V279.272727c0-16.290909-13.963636-30.254545-30.254546-30.254545h-144.290909zM421.236364 809.890909h-144.290909c-34.909091 0-65.163636-27.927273-65.163637-65.163636v-144.290909c0-34.909091 27.927273-65.163636 65.163637-65.163637h144.290909c34.909091 0 65.163636 27.927273 65.163636 65.163637V744.727273c-2.327273 37.236364-30.254545 65.163636-65.163636 65.163636z m-144.290909-235.054545c-16.290909 0-30.254545 13.963636-30.254546 30.254545v144.290909c0 16.290909 13.963636 30.254545 30.254546 30.254546h144.290909c16.290909 0 30.254545-13.963636 30.254545-30.254546V605.090909c0-16.290909-13.963636-30.254545-30.254545-30.254545h-144.290909zM747.054545 809.890909h-144.290909c-34.909091 0-65.163636-27.927273-65.163636-65.163636v-144.290909c0-34.909091 27.927273-65.163636 65.163636-65.163637h144.290909c34.909091 0 65.163636 27.927273 65.163637 65.163637V744.727273c-2.327273 37.236364-30.254545 65.163636-65.163637 65.163636z m-144.290909-235.054545c-16.290909 0-30.254545 13.963636-30.254545 30.254545v144.290909c0 16.290909 13.963636 30.254545 30.254545 30.254546h144.290909c16.290909 0 30.254545-13.963636 30.254546-30.254546V605.090909c0-16.290909-13.963636-30.254545-30.254546-30.254545h-144.290909z" fill="" p-id="4470"></path></svg>