<?xml version="1.0" standalone="no"?><!DOCTYPE svg PUBLIC "-//W3C//DTD SVG 1.1//EN" "http://www.w3.org/Graphics/SVG/1.1/DTD/svg11.dtd"><svg t="1603694417747" class="icon" viewBox="0 0 1024 1024" version="1.1" xmlns="http://www.w3.org/2000/svg" p-id="6242" xmlns:xlink="http://www.w3.org/1999/xlink" width="200" height="200"><defs><style type="text/css"></style></defs><path d="M816.1 361.3c0 166.5-134.9 340-301.4 340s-301.4-173.6-301.4-340" fill="#FFEBC1" p-id="6243"></path><path d="M517.5 734.4c-45.1 0-88.9-8.8-130.2-26.3-39.8-16.8-75.6-41-106.3-71.6-30.7-30.7-54.8-66.5-71.6-106.3-17.4-41.2-26.3-85-26.3-130.2 0-45.1 8.8-88.9 26.3-130.2 16.8-39.8 40.9-75.6 71.6-106.3s66.5-54.8 106.3-71.6c41.2-17.4 85-26.3 130.2-26.3s88.9 8.8 130.2 26.3c39.8 16.8 75.6 40.9 106.3 71.6 30.7 30.7 54.8 66.5 71.6 106.3 17.4 41.2 26.3 85 26.3 130.2 0 45.1-8.8 88.9-26.3 130.2-16.8 39.8-40.9 75.6-71.6 106.3-30.7 30.7-66.5 54.8-106.3 71.6-41.3 17.4-85.1 26.3-130.2 26.3z m0-602.8c-71.7 0-139.1 27.9-189.8 78.6S249.1 328.3 249.1 400c0 71.7 27.9 139.1 78.6 189.8s118.1 78.6 189.8 78.6c71.7 0 139.1-27.9 189.8-78.6s78.6-118.1 78.6-189.8-27.9-139.1-78.6-189.8-118.1-78.6-189.8-78.6z" fill="#D59E32" p-id="6244"></path><path d="M786.4 959.9L515.5 769.1 248.7 958.3l-38.2-53.8 304.9-216.3L824.5 906z" fill="#D59E32" p-id="6245"></path><path d="M328.8 329.8h86.9v130.7h-86.9zM497.3 329.8h86.9v130.7h-86.9z" fill="#CE9A35" p-id="6246"></path></svg>